<?xml version="1.0" ?><svg id="Layer_1" style="enable-background:new 0 0 24 24;" version="1.1" viewBox="0 0 24 24" xml:space="preserve" xmlns="http://www.w3.org/2000/svg" xmlns:xlink="http://www.w3.org/1999/xlink"><style type="text/css">
	.st0{fill:#5F6B89;}
	.st1{fill:#EF7F5E;}
	.st2{fill:#E5F0F9;}
	.st3{fill:#FF5F5F;}
	.st4{fill:#9076FF;}
	.st5{fill:#527BFF;}
	.st6{fill:#5CF2CA;}
	.st7{fill:#5BDEF4;}
	.st8{fill:#7AED8C;}
	.st9{fill:#5CC7F2;}
	.st10{fill:#F2C65A;}
	.st11{fill:url(#SVGID_1_);}
	.st12{fill:url(#SVGID_2_);}
	.st13{fill:url(#SVGID_3_);}
	.st14{fill:#F45D9A;}
	.st15{opacity:0.35;fill:#37415E;}
	.st16{fill:#37415E;}
</style><path class="st5" d="M21.75,12c0,4.73-3.32,8.7-7.93,9.56v-6.84h1.95c0.13,0,0.23-0.09,0.25-0.22l0.34-2.67  c0.01-0.07-0.01-0.14-0.06-0.2c-0.05-0.05-0.12-0.08-0.19-0.08h-2.29V9.68c0-0.53,0.43-0.96,0.96-0.96h1.49  c0.14,0,0.25-0.11,0.25-0.25V6.03c0-0.11-0.08-0.21-0.19-0.24c-0.8-0.2-2.32-0.48-3.62-0.07c-1.44,0.48-2.44,1.71-2.48,3.08  l-0.08,2.75H8.11c-0.14,0-0.25,0.11-0.25,0.25v2.67c0,0.14,0.11,0.25,0.25,0.25h2.03v6.84C5.55,20.68,2.25,16.71,2.25,12  c0-5.38,4.37-9.75,9.75-9.75S21.75,6.62,21.75,12z"/><path class="st16" d="M12,1.75C6.35,1.75,1.75,6.35,1.75,12c0,5.06,3.62,9.31,8.6,10.12c0.01,0,0.01-0.01,0.02-0.01  s0.01,0.01,0.02,0.01c0.03,0,0.04-0.02,0.07-0.03c0.03-0.01,0.07-0.01,0.09-0.04c0.02-0.02,0.03-0.04,0.04-0.06  c0.02-0.03,0.04-0.05,0.05-0.08c0-0.01-0.01-0.01-0.01-0.02s0.01-0.01,0.01-0.02v-7.4c0-0.14-0.11-0.25-0.25-0.25H8.36v-2.17h2.03  c0.13,0,0.25-0.11,0.25-0.24l0.09-2.99c0.03-1.16,0.89-2.21,2.14-2.62c1.08-0.35,2.37-0.15,3.15,0.03v1.99h-1.24  c-0.8,0-1.46,0.66-1.46,1.46v2.12c0,0.14,0.11,0.25,0.25,0.25h2.26l-0.28,2.17h-1.98c-0.14,0-0.25,0.11-0.25,0.25v7.4  c0,0.01,0.01,0.01,0.01,0.02s-0.01,0.01-0.01,0.02c0.01,0.03,0.03,0.06,0.05,0.09c0.01,0.02,0.02,0.04,0.03,0.05  c0.05,0.04,0.11,0.07,0.17,0.07c0.01,0,0.03,0,0.04,0c5.01-0.79,8.64-5.04,8.64-10.12C22.25,6.35,17.65,1.75,12,1.75z M13.82,21.56  v-6.84h1.95c0.13,0,0.23-0.09,0.25-0.22l0.34-2.67c0.01-0.07-0.01-0.14-0.06-0.2c-0.05-0.05-0.12-0.08-0.19-0.08h-2.29V9.68  c0-0.53,0.43-0.96,0.96-0.96h1.49c0.14,0,0.25-0.11,0.25-0.25V6.03c0-0.11-0.08-0.21-0.19-0.24c-0.8-0.2-2.32-0.48-3.62-0.07  c-1.44,0.48-2.44,1.71-2.48,3.08l-0.08,2.75H8.11c-0.14,0-0.25,0.11-0.25,0.25v2.67c0,0.14,0.11,0.25,0.25,0.25h2.03v6.84  C5.55,20.68,2.25,16.71,2.25,12c0-5.38,4.37-9.75,9.75-9.75s9.75,4.37,9.75,9.75C21.75,16.73,18.43,20.7,13.82,21.56z"/></svg>